<svg id="Capa_1" data-name="Capa 1" xmlns="http://www.w3.org/2000/svg" viewBox="0 0 250 66"><defs><style>.cls-1{fill:#3d3d3d;}</style></defs><title>Sin título-1</title><g id="_Grupo_" data-name="&lt;Grupo&gt;"><path id="_Trazado_compuesto_" data-name="&lt;Trazado compuesto&gt;" class="cls-1" d="M79.06,45.49a.21.21,0,0,1-.24-.24V16.13a.24.24,0,0,1,.24-.27l6.52-1c.11,0,.17.08.17.24v1.12l9.19-1.36c.12,0,.17.07.17.21V27.77c0,.18-.07.27-.23.27l-2.11.58,2.24,3a.6.6,0,0,1,.1.37V43.56a.25.25,0,0,1-.23.27Zm9-23.46-2.17.31v6.82L88.05,27ZM85.88,38.4,88.05,38V34.12l-2.17-3Z"/><path id="_Trazado_compuesto_2" data-name="&lt;Trazado compuesto&gt;" class="cls-1" d="M104.82,14.84c.12,0,.17.08.17.24V37.75h2.85c.14,0,.21,0,.21.14s-.07.44-.12.86-.15,1.08-.27,2-.3,2.18-.53,3.83a.26.26,0,0,1-.3.24H97.49a.24.24,0,0,1-.27-.27V16.2a.28.28,0,0,1,.27-.31Z"/><path id="_Trazado_compuesto_3" data-name="&lt;Trazado compuesto&gt;" class="cls-1" d="M115.89,37.75l-.27,7.5a.26.26,0,0,1-.28.24l-6.55-.34c-.16,0-.23-.08-.23-.24l1.52-28.75c0-.18.09-.27.28-.27l13.47-1q.27,0,.27.24l1.56,29.8a.21.21,0,0,1-.23.24l-6.86.37q-.24,0-.27-.27L118,38.43Zm1.42-16-.71,0L116,34.53l1.9.57Z"/><path id="_Trazado_compuesto_4" data-name="&lt;Trazado compuesto&gt;" class="cls-1" d="M139.58,21.73a.24.24,0,0,1-.27.24h-4.48V38l5.33.41a.44.44,0,0,1,.19.06.93.93,0,0,1,0,.21l-.81,6.51c0,.14-.13.21-.31.21l-12-1.56a.26.26,0,0,1-.24-.27V16.26a.26.26,0,0,1,.24-.3l13-1.05a.21.21,0,0,1,.24.23Z"/><path id="_Trazado_compuesto_5" data-name="&lt;Trazado compuesto&gt;" class="cls-1" d="M151.7,46.37a.37.37,0,0,1-.14,0c-.09,0-.14-.07-.17-.21l-2.2-14.73v13.1a.21.21,0,0,1-.24.24h-6.59a.21.21,0,0,1-.23-.24V16.09a.25.25,0,0,1,.23-.27l6.66-1c.11,0,.17.07.17.21v7.5l2.24-7.71a.31.31,0,0,1,.34-.24l7.29,1.16c.14,0,.21.09.21.13L155.81,26,159,43.89a.31.31,0,0,1-.24.34Z"/><path id="_Trazado_compuesto_6" data-name="&lt;Trazado compuesto&gt;" class="cls-1" d="M171.93,37.14v7.43a.21.21,0,0,1-.24.24h-6.58a.21.21,0,0,1-.24-.24V16.09a.26.26,0,0,1,.24-.27l6.55-1c.11,0,.17.07.17.21v1.15L181,14.87c.12,0,.17.07.17.21V35.75q0,.27-.24.27Zm0-3.7,2.17-.27V22l-2.17.31Z"/><path id="_Trazado_compuesto_7" data-name="&lt;Trazado compuesto&gt;" class="cls-1" d="M194.23,21.66a.24.24,0,0,1-.27.24H190.9v5.94h2.89c.07,0,.1,0,.1.1l-.41,2.89a.13.13,0,0,1-.13.1H190.9V38l4.31.58c.12,0,.18.06.19.12a.77.77,0,0,1,0,.15l-.85,6.53a.23.23,0,0,1-.27.21l-11-1.46c-.16,0-.24-.09-.24-.28V16.2a.28.28,0,0,1,.27-.31L195,14.84c.13,0,.2.08.2.24Z"/><path id="_Trazado_compuesto_8" data-name="&lt;Trazado compuesto&gt;" class="cls-1" d="M204.14,37.14v7.43a.21.21,0,0,1-.24.24h-6.58a.21.21,0,0,1-.24-.24V16.09a.26.26,0,0,1,.24-.27l6.55-1c.11,0,.17.07.17.21v1.15l9.16-1.36c.12,0,.17.07.17.21V35.75c0,.18-.08.27-.23.27Zm0-3.7,2.17-.27V22l-2.17.31Z"/><path id="_Trazado_compuesto_9" data-name="&lt;Trazado compuesto&gt;" class="cls-1" d="M222.3,37.14v7.43a.21.21,0,0,1-.24.24h-6.58a.21.21,0,0,1-.24-.24V16.09a.26.26,0,0,1,.24-.27l6.55-1c.11,0,.17.07.17.21v1.15l9.16-1.36c.12,0,.17.07.17.21V35.75c0,.18-.08.27-.23.27Zm0-3.7,2.17-.27V22l-2.17.31Z"/><path id="_Trazado_compuesto_10" data-name="&lt;Trazado compuesto&gt;" class="cls-1" d="M240.22,37.75l-.27,7.5a.24.24,0,0,1-.27.24l-6.55-.34a.21.21,0,0,1-.24-.24l1.53-28.75a.24.24,0,0,1,.27-.27l13.48-1q.27,0,.27.24L250,44.91a.21.21,0,0,1-.24.24l-6.85.37c-.16,0-.25-.09-.28-.27l-.27-6.82Zm1.43-16-.71,0-.61,12.73,1.9.57Z"/></g><path id="_Trazado_" data-name="&lt;Trazado&gt;" class="cls-1" d="M65.32,33C70.17,50.15,50.4,60.21,33,65.27,15.93,70.26-4.21,50.11.77,33,5.8,15.68,16-4.22,33,.72,50.26,5.71,60.28,15.18,65.32,33Z"/><path class="cls-1" d="M99.23,59.52l-.43,2.17H97l2-9.5h2.22l1.84,9.5h-1.79l-.41-2.17Zm1.53-1.44-.31-2c-.1-.58-.22-1.52-.31-2.15h0c-.1.63-.24,1.62-.34,2.17l-.35,2Z"/><path class="cls-1" d="M112.79,52.19v6.17c0,1.4.42,1.82.9,1.82s.91-.38.91-1.82V52.19h1.85V58c0,2.44-.92,3.76-2.75,3.76-2,0-2.76-1.37-2.76-3.75V52.19Z"/><path class="cls-1" d="M125.09,52.33a8.73,8.73,0,0,1,1.88-.18,3.66,3.66,0,0,1,2.63.84c.82.74,1.24,2,1.24,3.84s-.49,3.28-1.32,4a4,4,0,0,1-2.91.92,14.45,14.45,0,0,1-1.52-.1Zm1.85,7.89a1.09,1.09,0,0,0,.32,0c.89,0,1.66-.87,1.66-3.5,0-1.94-.5-3.12-1.62-3.12a1.08,1.08,0,0,0-.36,0Z"/><path class="cls-1" d="M140.91,52.19v9.5h-1.85v-9.5Z"/><path class="cls-1" d="M155.21,56.77c0,3.58-1.27,5-3.07,5-2.16,0-3-2.28-3-4.89s1-4.83,3.13-4.83C154.56,52.08,155.21,54.6,155.21,56.77Zm-4.16.17c0,2.15.41,3.25,1.16,3.25s1.07-1.41,1.07-3.34c0-1.66-.25-3.17-1.08-3.17S151.05,54.89,151.05,56.94Z"/><path class="cls-1" d="M164.75,61.69l-2.12-9.5h2l.68,4.1c.16,1,.36,2.18.49,3.3h0c.12-1.13.28-2.27.45-3.34l.65-4.06h2l-2.17,9.5Z"/><path class="cls-1" d="M178.69,52.19v9.5h-1.84v-9.5Z"/><path class="cls-1" d="M187.18,59.8a3.62,3.62,0,0,0,1.56.37c.88,0,1.3-.46,1.3-1.08s-.42-1-1.23-1.55A3.22,3.22,0,0,1,187,54.89a2.73,2.73,0,0,1,3-2.79,3.25,3.25,0,0,1,1.5.34l-.3,1.6a2.24,2.24,0,0,0-1.21-.33,1,1,0,0,0-1.17,1c0,.56.28.86,1.31,1.48a3.09,3.09,0,0,1,1.72,2.72,2.86,2.86,0,0,1-3.14,2.87,4.24,4.24,0,0,1-1.82-.38Z"/><path class="cls-1" d="M201.78,52.19v6.17c0,1.4.42,1.82.9,1.82s.92-.38.92-1.82V52.19h1.84V58c0,2.44-.91,3.76-2.74,3.76-2,0-2.77-1.37-2.77-3.75V52.19Z"/><path class="cls-1" d="M215.49,59.52l-.42,2.17h-1.79l2.06-9.5h2.21l1.85,9.5h-1.79l-.41-2.17ZM217,58.08l-.31-2c-.1-.58-.23-1.52-.31-2.15h0c-.1.63-.24,1.62-.34,2.17l-.35,2Z"/><path class="cls-1" d="M227.49,52.19h1.84v7.93h2.44v1.57h-4.28Z"/></svg>